<?xml version="1.0" encoding="utf-8"?>
<svg id="svg" version="1.1" style="display: block;" viewBox="0 0 701 175" xmlns="http://www.w3.org/2000/svg">
  <path d="M0 0 C7.26 0 14.52 0 22 0 C22 6.93 22 13.86 22 21 C14.74 21 7.48 21 0 21 C0 14.07 0 7.14 0 0 Z " transform="translate(314,91)" style="fill-rule: nonzero; paint-order: fill; fill: rgba(255, 255, 255, 0); stroke-width: 2px; stroke: rgb(147, 147, 147);"/>
  <path d="M0 0 C6.93 0 13.86 0 21 0 C21 6.93 21 13.86 21 21 C13.74 21 6.48 21 -1 21 C-1.020625 18.2775 -1.04125 15.555 -1.0625 12.75 C-1.071604 11.89889648 -1.08070801 11.04779297 -1.09008789 10.17089844 C-1.09258545 9.4905957 -1.09508301 8.81029297 -1.09765625 8.109375 C-1.10289307 7.41811523 -1.10812988 6.72685547 -1.11352539 6.01464844 C-1 4 -1 4 0 0 Z " transform="translate(342,91)" style="fill-rule: nonzero; paint-order: stroke; fill: rgba(255, 255, 255, 0); stroke-width: 2px; stroke: rgb(147, 147, 147);"/>
  <path d="M0 0 C2.7225 -0.020625 5.445 -0.04125 8.25 -0.0625 C9.10110352 -0.071604 9.95220703 -0.08070801 10.82910156 -0.09008789 C11.5094043 -0.09258545 12.18970703 -0.09508301 12.890625 -0.09765625 C13.92751465 -0.10551147 13.92751465 -0.10551147 14.98535156 -0.11352539 C17 0 17 0 21 1 C21 7.93 21 14.86 21 22 C14.07 22 7.14 22 0 22 C0 14.74 0 7.48 0 0 Z " transform="translate(369,64)" style="fill-rule: nonzero; paint-order: stroke; fill: rgba(255, 255, 255, 0); stroke-width: 2px; stroke: rgb(147, 147, 147);"/>
  <path d="M0 0 C6.93 0 13.86 0 21 0 C21.9584336 2.87530081 22.06656387 4.29049931 21.87890625 7.23046875 C21.81425171 8.31557739 21.81425171 8.31557739 21.74829102 9.42260742 C21.68697998 10.33502197 21.62566895 11.24743652 21.5625 12.1875 C21.376875 15.095625 21.19125 18.00375 21 21 C14.07 21 7.14 21 0 21 C0 14.07 0 7.14 0 0 Z " transform="translate(342,37)" style="fill-rule: nonzero; paint-order: stroke; fill: rgba(255, 255, 255, 0); stroke-width: 2px; stroke: rgb(147, 147, 147);"/>
  <path d="M0 0 C6.93 0 13.86 0 21 0 C21.08316962 7.2357571 20.80627925 13.74348676 20 21 C13.07 21 6.14 21 -1 21 C-0.67 14.07 -0.34 7.14 0 0 Z " transform="translate(369,92)" style="fill-rule: nonzero; paint-order: stroke; fill: rgba(255, 255, 255, 0); stroke-width: 2px; stroke: rgb(147, 147, 147);"/>
</svg>